<svg width="532" height="376" viewBox="0 0 532 376" fill="none" xmlns="http://www.w3.org/2000/svg">
<path d="M54.5391 201.357C54.5391 160.104 64.3281 147.518 83.207 135.281C98.9395 125.143 110.826 116.402 110.826 102.068C110.826 89.1328 100.338 80.3926 87.4023 80.3926C73.7676 80.3926 61.8809 90.5312 61.5312 105.564H0C0.699219 51.7246 40.2051 29 87.752 29C140.193 29 178.65 52.4238 178.65 98.5723C178.65 128.289 162.568 146.119 138.445 160.104C120.266 170.941 111.176 181.08 111.176 201.357V206.951H54.5391V201.357ZM83.5566 289.459C64.6777 289.459 49.2949 274.426 49.6445 255.547C49.2949 237.018 64.6777 221.984 83.5566 221.984C101.387 221.984 117.469 237.018 117.469 255.547C117.469 274.426 101.387 289.459 83.5566 289.459Z" fill="#313131"/>
<path d="M227.539 287.357C227.539 246.104 237.328 233.518 256.207 221.281C271.939 211.143 283.826 202.402 283.826 188.068C283.826 175.133 273.338 166.393 260.402 166.393C246.768 166.393 234.881 176.531 234.531 191.564H173C173.699 137.725 213.205 115 260.752 115C313.193 115 351.65 138.424 351.65 184.572C351.65 214.289 335.568 232.119 311.445 246.104C293.266 256.941 284.176 267.08 284.176 287.357V292.951H227.539V287.357ZM256.557 375.459C237.678 375.459 222.295 360.426 222.645 341.547C222.295 323.018 237.678 307.984 256.557 307.984C274.387 307.984 290.469 323.018 290.469 341.547C290.469 360.426 274.387 375.459 256.557 375.459Z" fill="#313131"/>
<path d="M407.539 172.357C407.539 131.104 417.328 118.518 436.207 106.281C451.939 96.1426 463.826 87.4023 463.826 73.0684C463.826 60.1328 453.338 51.3926 440.402 51.3926C426.768 51.3926 414.881 61.5312 414.531 76.5645H353C353.699 22.7246 393.205 0 440.752 0C493.193 0 531.65 23.4238 531.65 69.5723C531.65 99.2891 515.568 117.119 491.445 131.104C473.266 141.941 464.176 152.08 464.176 172.357V177.951H407.539V172.357ZM436.557 260.459C417.678 260.459 402.295 245.426 402.645 226.547C402.295 208.018 417.678 192.984 436.557 192.984C454.387 192.984 470.469 208.018 470.469 226.547C470.469 245.426 454.387 260.459 436.557 260.459Z" fill="#313131"/>
</svg>
